<?xml version="1.0" standalone="no"?>
<!DOCTYPE svg PUBLIC "-//W3C//DTD SVG 20010904//EN"
 "http://www.w3.org/TR/2001/REC-SVG-20010904/DTD/svg10.dtd">
<svg version="1.0" xmlns="http://www.w3.org/2000/svg"
 width="848.000000pt" height="848.000000pt" viewBox="0 0 848.000000 848.000000"
 preserveAspectRatio="xMidYMid meet">
<metadata>
Created by potrace 1.11, written by Peter Selinger 2001-2013
</metadata>
<g transform="translate(0.000000,848.000000) scale(0.100000,-0.100000)"
fill="#000000" stroke="none">
<path d="M673 8453 c-21 -34 -33 -43 -53 -42 -8 1 -23 1 -32 0 -17 -1 -18
-207 -18 -4171 l0 -4170 30 -1 c17 -1 35 -2 40 -3 6 0 19 -16 30 -34 l21 -33
32 19 c83 51 139 82 147 82 6 0 10 5 10 10 0 6 5 10 11 10 6 0 49 23 97 51 48
29 102 60 120 71 18 10 66 37 105 60 205 117 260 148 264 148 2 0 9 5 16 10
12 11 366 217 467 272 83 45 144 81 150 88 3 3 23 15 45 27 22 11 54 29 72 40
126 73 260 149 268 152 6 2 21 12 35 21 14 10 41 26 60 36 32 18 406 234 440
255 59 36 193 109 201 109 5 0 9 4 9 9 0 5 8 11 18 15 20 7 71 36 256 144 76
45 140 82 143 82 3 0 17 8 31 18 15 11 52 32 82 49 30 17 71 40 90 51 19 12
71 41 115 67 44 25 105 60 136 78 30 17 104 60 165 95 60 35 116 67 124 72 16
10 86 50 161 92 24 14 99 57 166 97 68 39 125 71 128 71 3 0 11 5 18 11 19 16
428 249 438 249 5 0 9 5 9 10 0 6 4 10 9 10 5 0 92 48 193 107 246 143 249
144 283 163 17 8 58 32 91 53 34 20 66 37 72 37 6 0 12 4 14 8 3 7 55 38 218
130 25 14 81 46 125 72 123 72 533 309 595 343 30 17 83 48 118 69 34 21 64
38 67 38 3 0 34 18 70 40 36 22 70 40 75 40 6 0 10 4 10 9 0 5 9 12 20 16 16
5 308 171 573 327 l68 39 -21 34 c-19 30 -19 65 0 65 4 0 10 9 13 20 5 19 -23
39 -178 126 -11 6 -45 25 -75 43 -30 18 -63 35 -73 38 -9 3 -17 9 -17 14 0 5
-4 9 -9 9 -5 0 -44 20 -85 45 -42 25 -81 45 -86 45 -6 0 -10 3 -10 8 0 4 -10
12 -23 18 -49 23 -112 59 -115 67 -2 4 -8 7 -13 7 -5 0 -54 27 -110 60 -55 33
-103 60 -105 60 -3 0 -30 16 -60 35 -30 19 -56 35 -59 35 -4 0 -90 50 -155 90
-8 5 -31 18 -50 28 -29 16 -355 204 -610 352 -36 21 -148 86 -250 144 -102 58
-192 111 -200 116 -15 9 -76 44 -165 95 -27 15 -102 58 -165 95 -63 37 -126
73 -140 81 -14 8 -33 20 -43 28 -9 8 -17 10 -17 6 0 -4 -8 -1 -17 7 -10 8 -38
26 -63 40 -25 14 -61 35 -80 46 -19 10 -75 43 -125 72 -49 29 -105 61 -123 71
-153 88 -504 290 -681 393 -62 36 -115 66 -117 66 -3 0 -40 23 -84 50 -44 28
-82 50 -84 50 -2 0 -64 35 -138 78 -74 43 -141 82 -149 86 -8 4 -23 12 -34 19
-11 7 -63 36 -115 66 -52 30 -103 61 -113 69 -9 8 -17 11 -17 6 0 -5 -4 -4 -8
1 -4 6 -16 15 -27 21 -26 15 -263 152 -313 181 -20 12 -44 25 -52 30 -20 10
-319 182 -350 201 -14 9 -27 15 -30 15 -3 -1 -12 4 -20 11 -13 11 -71 45 -258
152 -21 11 -55 31 -77 44 -22 12 -60 34 -85 48 -25 14 -57 33 -72 43 -14 11
-28 19 -31 19 -3 0 -41 21 -84 46 -43 26 -94 56 -113 67 -19 10 -91 52 -160
92 -69 39 -145 83 -170 97 -64 36 -549 316 -587 340 l-32 19 -18 -28z m83
-192 c5 -5 113 -68 239 -141 233 -134 265 -153 333 -192 20 -12 50 -28 65 -37
16 -9 36 -20 46 -26 9 -5 61 -36 116 -68 55 -32 107 -62 115 -67 52 -31 312
-180 314 -180 2 0 34 -18 70 -40 36 -22 70 -40 76 -40 5 0 10 -4 10 -10 0 -5
6 -10 14 -10 7 0 19 -7 26 -15 7 -8 16 -12 21 -9 5 3 9 0 9 -5 0 -6 4 -11 9
-11 7 0 152 -82 231 -130 16 -10 310 -179 370 -213 19 -10 72 -41 118 -68 45
-27 87 -49 92 -49 6 0 10 -4 10 -8 0 -4 12 -13 28 -19 28 -12 103 -54 112 -63
3 -3 16 -11 30 -19 14 -8 46 -26 71 -40 56 -32 329 -189 349 -202 70 -42 415
-239 419 -239 3 0 17 -9 29 -18 l24 -19 -414 -239 c-227 -131 -422 -244 -433
-250 -11 -6 -65 -37 -120 -69 -55 -32 -118 -68 -140 -80 -22 -13 -134 -77
-248 -144 -115 -67 -212 -121 -217 -121 -5 0 -10 -3 -12 -7 -3 -8 -17 -16
-118 -73 -30 -16 -62 -35 -70 -40 -8 -5 -105 -61 -215 -124 -110 -63 -205
-120 -212 -125 -7 -6 -15 -11 -18 -11 -3 0 -50 -25 -103 -56 -53 -31 -110 -64
-127 -74 -156 -89 -698 -403 -763 -441 -45 -27 -87 -49 -92 -49 -6 0 -10 -4
-10 -9 0 -5 -8 -11 -17 -15 -10 -3 -24 -9 -30 -12 -10 -4 -13 387 -13 1940 0
1070 4 1946 8 1946 4 0 12 -4 18 -9z m3429 -4015 c0 -1064 -3 -1937 -6 -1940
-4 -4 -41 14 -83 39 -42 25 -79 45 -82 45 -3 0 -30 16 -60 35 -30 19 -56 35
-58 35 -2 0 -65 36 -139 80 -75 44 -138 80 -142 80 -3 0 -26 14 -50 30 -24 17
-46 30 -48 30 -3 0 -72 39 -154 86 -233 136 -247 144 -273 157 -14 6 -27 14
-30 17 -4 5 -143 86 -272 158 -20 12 -55 32 -77 46 -22 15 -43 26 -46 26 -2 0
-33 17 -67 38 -35 21 -70 41 -78 45 -8 4 -31 17 -50 29 -77 47 -136 79 -152
85 -10 3 -18 9 -18 14 0 5 -4 9 -9 9 -9 0 -99 49 -161 88 -14 9 -26 14 -26 11
-1 -2 -10 3 -20 12 -24 21 -213 129 -225 129 -5 0 -9 5 -9 10 0 6 -4 10 -10
10 -5 0 -47 22 -92 49 -46 26 -186 108 -313 181 -302 174 -298 172 -468 269
-81 46 -147 87 -147 91 0 4 10 12 23 18 26 13 77 43 247 142 69 40 141 82 160
93 19 10 72 41 118 68 45 27 85 49 87 49 2 0 37 20 77 43 100 60 256 151 298
175 19 10 91 52 160 92 69 40 184 106 255 147 72 41 137 78 145 83 108 66 150
89 150 82 0 -4 4 -2 8 4 8 13 199 124 213 124 5 0 9 5 9 10 0 6 4 10 10 10 5
0 50 24 100 54 49 30 90 51 90 48 0 -4 4 -2 8 3 4 6 16 15 27 21 83 46 556
320 577 335 15 11 29 19 32 19 2 0 44 23 93 51 48 28 104 60 123 71 19 11 64
37 100 58 36 21 81 47 101 58 75 42 84 47 89 52 10 10 45 29 55 29 7 1 10
-637 10 -1933z m262 1883 c48 -29 106 -62 128 -74 22 -13 102 -60 179 -104 76
-45 142 -81 147 -81 5 0 9 -4 9 -10 0 -6 3 -9 8 -8 4 1 18 -5 32 -14 55 -35
152 -88 161 -88 5 0 9 -4 9 -10 0 -5 5 -10 12 -10 6 0 51 -25 101 -55 49 -30
91 -55 94 -55 2 0 57 -31 121 -69 64 -38 133 -78 152 -88 19 -11 53 -31 76
-44 23 -13 84 -49 137 -79 97 -55 97 -55 74 -72 -12 -10 -31 -21 -42 -24 -11
-4 -22 -10 -25 -13 -3 -4 -32 -22 -65 -41 -83 -46 -105 -58 -231 -132 -61 -36
-117 -68 -125 -72 -8 -4 -23 -12 -34 -19 -85 -51 -182 -105 -189 -105 -5 0
-12 -4 -15 -9 -3 -5 -44 -31 -91 -57 -47 -27 -128 -74 -180 -105 -52 -30 -98
-55 -102 -53 -5 1 -8 -3 -8 -8 0 -6 -4 -10 -9 -10 -5 0 -71 -37 -147 -82 -77
-44 -152 -88 -169 -97 -16 -8 -45 -25 -64 -38 -19 -13 -37 -21 -40 -17 -6 6
-10 1774 -4 1787 6 10 4 11 100 -44z m1711 -991 c2 -5 7 -8 12 -8 7 0 262
-145 430 -244 30 -18 62 -36 70 -40 8 -3 29 -15 45 -26 29 -18 52 -31 105 -61
29 -16 547 -316 570 -330 17 -10 106 -61 160 -92 122 -69 160 -92 160 -98 0
-4 -24 -21 -52 -37 -29 -16 -141 -80 -248 -142 -107 -62 -208 -120 -225 -130
-71 -41 -303 -174 -330 -190 -16 -10 -68 -39 -115 -66 -47 -26 -87 -50 -90
-53 -3 -4 -16 -12 -30 -18 -14 -7 -47 -26 -75 -43 -27 -16 -57 -33 -65 -37 -8
-4 -86 -49 -173 -100 -87 -50 -167 -95 -178 -98 -10 -4 -19 -10 -19 -15 0 -12
-42 -20 -54 -11 -11 8 -74 45 -156 89 -24 13 -57 32 -71 43 -15 10 -29 19 -32
19 -2 0 -66 36 -142 80 -76 44 -139 80 -140 80 -2 0 -33 18 -69 40 -36 22 -70
40 -76 40 -5 0 -10 5 -10 10 0 6 -5 10 -11 10 -6 0 -49 23 -97 51 -48 29 -100
60 -117 69 -67 38 -364 209 -413 239 -29 17 -55 31 -58 31 -3 0 -18 8 -32 19
-28 19 -111 67 -149 85 -13 6 -23 14 -23 19 0 4 -7 7 -15 7 -27 0 -16 16 28
39 23 12 49 26 57 31 34 22 222 130 225 130 3 0 38 20 78 45 41 25 80 45 86
45 6 0 11 3 11 8 0 4 21 18 48 32 26 13 63 34 82 46 19 11 76 44 125 73 50 28
97 56 105 60 22 13 435 252 484 280 22 12 59 33 81 45 22 11 42 23 45 27 3 3
32 20 65 39 115 64 104 62 149 37 23 -12 43 -25 44 -29z m-5299 -1110 c69 -39
134 -78 144 -86 9 -8 17 -11 17 -7 0 4 8 1 18 -8 20 -18 138 -85 165 -94 9 -3
17 -9 17 -14 0 -5 4 -9 9 -9 5 0 49 -23 98 -51 48 -29 108 -63 133 -77 25 -13
52 -30 60 -37 8 -6 23 -15 32 -18 9 -3 62 -33 117 -66 55 -34 105 -61 111 -61
5 0 10 -4 10 -10 0 -5 5 -10 11 -10 5 0 51 -24 102 -54 51 -30 110 -64 132
-76 22 -13 54 -31 70 -41 17 -11 36 -22 44 -26 8 -3 64 -35 125 -71 189 -110
300 -174 336 -195 19 -10 107 -61 195 -112 88 -51 176 -102 195 -112 19 -11
59 -34 88 -52 29 -17 57 -31 62 -31 6 0 10 -4 10 -10 0 -5 4 -10 10 -10 5 0
47 -22 92 -48 46 -27 142 -83 213 -124 129 -75 168 -97 255 -146 25 -13 50
-28 55 -32 6 -4 26 -17 45 -27 19 -11 88 -51 154 -88 l118 -68 -23 -18 c-13
-10 -33 -22 -44 -25 -11 -4 -22 -10 -25 -13 -3 -4 -56 -36 -119 -72 -133 -75
-156 -88 -314 -180 -65 -38 -122 -69 -128 -69 -5 0 -9 -4 -9 -8 0 -4 -12 -13
-27 -20 -16 -6 -50 -25 -78 -42 -27 -17 -59 -35 -70 -40 -11 -6 -33 -19 -50
-29 -16 -10 -102 -59 -190 -110 -88 -50 -167 -95 -175 -101 -17 -10 -179 -104
-226 -131 -17 -9 -42 -23 -55 -31 -13 -7 -26 -15 -29 -18 -5 -5 -17 -12 -96
-55 -27 -14 -62 -35 -79 -46 -16 -10 -36 -22 -44 -25 -16 -8 -418 -239 -441
-254 -19 -12 -160 -92 -180 -103 -8 -4 -36 -20 -61 -35 -25 -15 -111 -65 -192
-112 -171 -99 -155 -90 -277 -159 -93 -53 -230 -133 -260 -151 -25 -15 -164
-95 -172 -98 -5 -2 -9 872 -10 1942 -2 1070 -1 1946 1 1946 2 0 60 -32 130
-72z m3619 -5 c21 -12 44 -25 52 -29 8 -5 107 -61 219 -126 112 -65 207 -118
212 -118 4 0 9 -3 11 -7 2 -5 21 -17 43 -29 22 -12 112 -63 200 -114 88 -51
179 -104 202 -116 23 -13 108 -63 190 -110 146 -85 181 -105 256 -147 42 -24
46 -38 14 -53 -12 -5 -83 -46 -157 -89 -120 -69 -364 -210 -490 -283 -25 -14
-60 -33 -78 -43 -18 -9 -38 -22 -45 -27 -7 -5 -32 -20 -57 -33 -25 -13 -47
-26 -50 -29 -3 -3 -19 -12 -35 -21 -17 -9 -129 -74 -250 -144 -121 -70 -236
-136 -255 -147 -19 -11 -53 -31 -75 -44 l-40 -23 1 902 c1 496 2 903 3 904 1
2 57 -31 129 -74z"/>
</g>
</svg>
