<svg id="Layer_1" data-name="Layer 1" xmlns="http://www.w3.org/2000/svg" viewBox="0 0 159.88 178.25"><defs><style>.cls-1{fill:#202020;}.cls-2{font-size:12px;fill:#fff;font-family:QuicksandLight-Regular, Quicksand;}.cls-3,.cls-6{font-size:21px;font-family:QuicksandBold-Regular, Quicksand;}.cls-4,.cls-6{font-weight:700;}.cls-5{font-family:MyriadPro-Regular, Myriad Pro;}</style></defs><title>Rabatt</title><path class="cls-1" d="M594.93,290.47c-.25,3.78-.61,12.36-.22,10.68l1-14.52Z" transform="translate(-495.58 -258)"/><path class="cls-1" d="M595.41,317.51c.75-7,2.19-19.35,3-32.71-1.47,13.92-1.17,8.08-2.66,24.69-.38,1.68-.2-4.69.16-10-.32,3.72-.32-3.23-1,5.89-.2,11.28.07,11.75,1.21,2.49C596,311,595.61,314.83,595.41,317.51Z" transform="translate(-495.58 -258)"/><path class="cls-1" d="M603.26,333.39l.09,0Z" transform="translate(-495.58 -258)"/><path class="cls-1" d="M585.36,335.8a23.87,23.87,0,0,0-2.9-1.14A25.86,25.86,0,0,0,585.36,335.8Z" transform="translate(-495.58 -258)"/><path class="cls-1" d="M569.64,332.12l1,.26C569.33,332,568.62,331.73,569.64,332.12Z" transform="translate(-495.58 -258)"/><path class="cls-1" d="M603.26,333.39l-.23,0Z" transform="translate(-495.58 -258)"/><path class="cls-1" d="M603.36,283a30.85,30.85,0,0,0-.87,3.75,14.18,14.18,0,0,1,.55-1.48Z" transform="translate(-495.58 -258)"/><polygon class="cls-1" points="107.14 76.13 107.08 76.2 107.03 76.26 107.14 76.13"/><path class="cls-1" d="M599,340.18l.09-.21,0-.07.87-1.83-.88,1.87,0,.1c0,.07-.05.14-.11.24Z" transform="translate(-495.58 -258)"/><path class="cls-1" d="M597.64,332.82l-.36,1.68Z" transform="translate(-495.58 -258)"/><path class="cls-1" d="M603.76,333.22h0Z" transform="translate(-495.58 -258)"/><path class="cls-1" d="M593.64,268.11l.23,2.2A11.47,11.47,0,0,0,593.64,268.11Z" transform="translate(-495.58 -258)"/><path class="cls-1" d="M605.44,330.3l-.06.62.16,6.68Z" transform="translate(-495.58 -258)"/><path class="cls-1" d="M565.64,331.9l-.12-.06Z" transform="translate(-495.58 -258)"/><path class="cls-1" d="M590.8,314.23c-1.69,5.26-2.92,8.59-4.22,12.06s-2.67,7.08-4.43,13c.77-2.3,2.45-6.82,4.15-11.65S589.76,317.67,590.8,314.23Z" transform="translate(-495.58 -258)"/><path class="cls-1" d="M603.38,284.66c.14-.12.27-.21.38-.08C603.65,284.16,603.53,284.19,603.38,284.66Z" transform="translate(-495.58 -258)"/><path class="cls-1" d="M582.16,339.26l0,.09-.33,1.12Z" transform="translate(-495.58 -258)"/><path class="cls-1" d="M590.16,346.31l-.07-.07Z" transform="translate(-495.58 -258)"/><path class="cls-1" d="M577.34,337.56l-.37-.19-.18-.1.06,0,.32.17-.17-.09-.09,0,0,0,.07,0Z" transform="translate(-495.58 -258)"/><polygon class="cls-1" points="95.74 89.62 95.74 89.63 95.74 89.63 95.74 89.62"/><polygon class="cls-1" points="95.28 88.47 95.29 88.51 95.32 88.59 95.28 88.47"/><path class="cls-1" d="M572.24,277.6c1.14,3.3,2.31,7,3.44,10.57C573.09,279.77,573.27,276.47,572.24,277.6Z" transform="translate(-495.58 -258)"/><path class="cls-1" d="M602.46,289.91a45.78,45.78,0,0,1,.92-5.25,3,3,0,0,0-.34.62C602.78,287.1,602.55,288.83,602.46,289.91Z" transform="translate(-495.58 -258)"/><path class="cls-1" d="M632.67,416.21q-1.77,0-3.5-.08A3.61,3.61,0,0,0,632.67,416.21Z" transform="translate(-495.58 -258)"/><path class="cls-1" d="M518,316.37l-.9-1.36C516.76,315.08,516.93,315.48,518,316.37Z" transform="translate(-495.58 -258)"/><path class="cls-1" d="M622,421.61a60.91,60.91,0,0,0-4.66-7.34c.26.95.42,1.72.87,3.08Q620.05,419.54,622,421.61Z" transform="translate(-495.58 -258)"/><path class="cls-1" d="M575.71,288.3l0-.12Z" transform="translate(-495.58 -258)"/><path class="cls-1" d="M576.09,258c-1.33-.09,3,15.63,4.83,24.77-.17,4.75-3.32-11.52-5.72-19.51.08,4.4,3.11,19,2.4,18.53-.71-2.58-1.08-3.5-1.78-6.78,1.19,6.36.64,6.64.17,7.37s-.85,1.85,1,9.76c-.47-1.36-.88-2.66-1.24-3.85,2.42,7.79,4.73,15.73,6.35,21.39-.29.37,2.29,10-.89-.13.3.24-.9-3.87-1.73-7.08l.93,4.52c-4.75-14.51-1-5.21-4.16-16.05.26,2.5,1.08,6.85,1.63,10.08s.83,5.32-.12,3.35c-4.71-14.18,0-5.26-4.9-17.66q1.39,2.56,2.73,5.14c-7.69-22.3,1.17,1.35-6.95-22.53-1.45-1.82-1.36.15-1.23,2.1s.29,3.89-1.19,2.07c2.28,8,4,11.62,6.31,19.6,1.44,7.4-2-1.36-5.29-9.49s-6.46-15.66-3.87-6c3,9.5,9.66,27.21,5.13,18.24L562.72,280c-2.1-1,8.13,22.9,2.54,12.89-2.27-6.24-1-5.61-2-7.39-6-12,2.91,9.15,2.3,9.41l-5.87-13.76c-.28,1.39.26,4.74.86,8.12s1.34,6.77,1.23,8.31c-1.78-4.08-3.47-8.45-5.72-12.46.61,3.83-.47,3.84-2.48,2a44.11,44.11,0,0,1-3.59-3.83c-1.32-1.58-2.76-3.37-4.18-5.13L551,290a61,61,0,0,1-3.9-7.37c-2.87-4,3.7,7.31,5.72,12,.08,1-3.86-6.37-5.41-9.93,1,2.58,2,5.26,2.78,7.67a48.23,48.23,0,0,1,1.67,6c.47,2.92-.48,3.1-4.64-2.49l-1.59-3.51c-1.91-1.93,1,4,3.63,9.17s4.86,9.54,1.25,4.68l-1-2.08c-2.72-1.63-3.36.62-4.9,1.47-.8.45-1.79.51-3.57-.29a43.87,43.87,0,0,1-8.09-5.73c5.64,7.4,3.52,6.47,1.89,6.37s-2.69.58,6.23,10c-5.32-3.81-8.86-6.43-12.11-8.61a31.64,31.64,0,0,0-5-2.78,25,25,0,0,0-2.9-1c-.52-.15-1.06-.29-1.64-.42s-1.22-.17-1.88-.23c-1,.25,1.74,3.31,4.92,6.6s6.81,6.81,7.45,8.21l-10.89-8.09q4.94,5.28,10.22,10.15-7-4.17-14.12-8.07c.63,1.15,1.29,2.26,2,3.37,1.05-.19,5.89,2.1,9.09,4.33,1.95,2.61-.69,2.44-4.78,1.52a66.56,66.56,0,0,1-12.65-4.15c1.14,1.93,2.35,3.84,3.62,5.66s2.6,3.58,4,5.28c-5-2.12-6.33-3.93-9.13-6.2,2.79,2.27,3.39,3,2.81,3.14a15.25,15.25,0,0,1-4-1.13,18.26,18.26,0,0,0-4.24-1.22c-.7,0-.32.78,2.33,2.75,3.06.6,7.5,3,10.06,4-4.13-.6-6.58.16-7.65,1.61s-.72,3.55.65,5.54q-4.52-1.26-9-2.6c-1.87,3-1.35,6.94-.2,10.94.29,1,.6,2,.93,3l1,3a30.31,30.31,0,0,1,1.33,6.16c2-1.76,7.1-2.66,11.88-3s9.25-.1,10.12.62q-7.08,1.13-14.14,2.47a15.74,15.74,0,0,0,7.3-1.15c1.55-.56,3.37-.82,8.89-.45-.67,1.12-4.61,2.19-9,2.88s-9.27.85-11.72.29q2.74,1.51,5.52,2.71c-4.15,1.07-6.53.67-11.94,1.41,2.27,0,2.59.58,2.08,1.48a34.64,34.64,0,0,1-2.94,3.48c-2.21,2.6-3.39,5.44,4.33,4.09l-4,1.58a18.12,18.12,0,0,0,2.85,5.47,23.81,23.81,0,0,0,3.66,3.67c.63.52,1.27,1,1.9,1.51s1.25.92,1.86,1.39a22.27,22.27,0,0,1,3.46,3.25c5.15-3.42,7.47-4.32,9.61-5a30.17,30.17,0,0,0,8.5-3.53,40.23,40.23,0,0,1-1.31,4.39,44.43,44.43,0,0,0-1.41,5,15.74,15.74,0,0,0-.41,4.5,3.31,3.31,0,0,0,1.57,2.78,19.18,19.18,0,0,0,6.62-5.48,72.55,72.55,0,0,1,6.27-7c-7.15,8.73-3.72,10.08-10.11,15.37a19.36,19.36,0,0,0,2.88.57,6.86,6.86,0,0,0,2.67-.19,16.39,16.39,0,0,0,3.38-1.45,32.33,32.33,0,0,0,4.89-3.32c2-4.18,2.71-6.1,4.85-9.29,1.39-1.32-1.28,4.73-4,9.41l-.73.93c3-3.13,3.74-2.83,3.76-.64s-.91,6-1.53,9.85-1.23,7.33-.83,8.7,1.58.45,4.37-4.75l-.57,1q3.43-5.21,6.56-10.56c.15,2.14-3.55,7.71-5.4,14.47,2.22-4.19,3.44-6.06,4.14-6.68s.8,0,.89.79c.17,1.62,0,4,2.89-1.68-4.8,15.92-3.39,15.79-1.45,14.22,1-.78,2.07-1.93,2.64-1.58s.67,2.21-.26,7.46l2.06-7.56c2.64-7.22-.61,4.48-.67,6.33,1.58-5.87,1.34-6.93,2.82-10.94a4.91,4.91,0,0,1,2.19-1.68,1.68,1.68,0,0,1,1.69.56,7.07,7.07,0,0,1,1.32,2.31c.39,1,.84,2.22,1.25,3.57s.83,2.82,1.26,4.33,1,3.07,1.53,4.59,1.15,3,1.79,4.33a16.94,16.94,0,0,0,2.24,3.53c1.25,1.21,2.72-8.82,3.9-16.79a80.73,80.73,0,0,1,1.57-8.75c.42-1.29.79-.43,1.17,4.29q-.95,7.22-2,14.42c1.75-4.24,3.16-6.3,4.5-7.23a3.79,3.79,0,0,1,1-.5,4.42,4.42,0,0,1,1.06-.2,9.31,9.31,0,0,1,2.12.17,14.82,14.82,0,0,0,2.12.26,4.83,4.83,0,0,0,2.25-.51c1.48-.77,2.8-2.51,3.81-6.37.06,3.37.5,7.72-.09,7.72,1.18,5.19,2.67,5.12,3.46,2.71s.93-7.17.2-11.41c1.08.81,1.55,7.64,3,11.84,1.27,2.95,1.64-.57,1.86-3.53s.37-5.36,2-.34a10.35,10.35,0,0,1,.29,4.29c-.21-5.18,4.95.08.74-11.41,2,2.47,2.89.74,3.59-.74s1.34-2.78,3.63.21c-1.86-6.57-.32-5.46,1-5s2.22.26-1.76-8.51c4.15,9,7,12.16,8.47,11.8s1.41-4.15-.32-8.57a18.5,18.5,0,0,0,3.66,5.29A25.74,25.74,0,0,1,633,416c.88-.69,1.26-2.11.62-4.36s-2.31-5.34-5.31-9.48c4,4.45,5.89,5.32,6.5,4.61s0-3-.6-5c-1.22-4.1-2.52-7.09,8.38,3.65-.58-3-1.33-5.75-2-8.27s-1.31-4.8-2-6.85l-1.78-5.63c-.57-1.68-1.07-3.19-1.48-4.57,7.89,6,7.6,7.21,7.4,8.44s-.36,2.55,7.6,9.27a30.77,30.77,0,0,0-3.74-7c-1.56-2.33-3.28-4.6-4.73-6.57-2.94-3.91-4.83-6.55-2-6.5,2.7.82,7,5,9.6,7.24-1.18-1.91-1.55-3-1.44-3.94a4.52,4.52,0,0,1,1-2.08c.8-1.16,1.37-2.6-2.93-6.1a33.16,33.16,0,0,1,4.54,2.94c-.35-.73,3.12.29-4.95-3.73l2,1.51a168.2,168.2,0,0,1-17.07-9.34c-5.22-3.13-9.79-5.81-12.9-7.33,11.53,5.87,13.15,6.24,15.56,6.93s5.61,1.71,20.16,9.16a73,73,0,0,0-10.64-5.59c1.75.39,5,1.69,11.08,5-1.88-1.78-5.1-3.48-7.75-4.87s-4.73-2.51-4.4-3c4,1.73,5.47,2.62,10.12,4.8-7.53-4-15.16-7.85-11.42-7.26,2.42,1,5.63,2.23,5.46,2.48-.3-1-5.29-3.8-9.26-6s-6.83-3.87-2.73-3.11c17.68,6.9,6,1.67,21.52,7.14l-4.32-2.46-7.63-2.34c.52-.61-10.63-5-5.36-3.78l6.24,2.66c-.85-.73-1.69-1.47-2.56-2.14l-6.11-1.4c-7.81-3.32-19.69-6.66-15.11-5.9,1.54.68.36-.45,9.64,2.34l0,0c-4.87-1.93-10-3.95-6-3.07,5,1.53,17.23,5.77,20.57,6.79-13-4.55-3.1-2.78-16.94-7.55,3.24,1.14,11.47,3.72,13.18,4.19l-10.58-3.57a105.08,105.08,0,0,1,11.74,3.22c1.15-.27-3.88-1.66-8.06-2.83s-7.52-2.12-3-1.44c.84.34,2.46.76,4,1.43,2.43,0,.92-1.14-.54-2.18s-2.83-2,0-2.1c8.12,1.53,9,2.11,9.63,2.6s.87.91,7.72,2.22a14.49,14.49,0,0,0-3.77-2.9c-1.76-1-3.86-2.16-5.77-3.14a34.21,34.21,0,0,1-4.62-2.66c-1-.74-1.25-1.4-.23-2l-1.86.32c-11.61-1.19-8.71-1.17-4.26-1.44a46.13,46.13,0,0,0,6.2-.69c1.37-.32,1.49-.73-1.25-1.08,1.72.32,12.94.61,10.34.46,1-.55,1-1.25.55-1.89a7.9,7.9,0,0,0-3-1.9,36.46,36.46,0,0,0-5.22-1.67c-2-.52-4-1-6-1.34q3-.4,6-.73c2.52-1.17,3-2.41,3.18-3.56s-.08-2.27.91-3.6c-5.84,1.43-5.2.36-13.18,3.89,7.64-3.91,9.88-6.59,9.6-7.91s-3.12-1.34-6-.89-5.68,1.24-6.54.8.27-2.34,4.76-8c.39.33,4.83-2.43,4.54-2.81a34.84,34.84,0,0,0-6.76.94c-3.38,3.8-4.37,5-5.14,6a61.21,61.21,0,0,1-3.92,4.82c-4.52,4-8,7.14-8.22,6.94a89.62,89.62,0,0,0,7.82-8.29,102.39,102.39,0,0,0,6.27-8.62c-2,2.43-4.33,4.92-6.34,7.37,2.68-3.65,3.11-4.56,2.47-3.95s-2.41,2.71-4.28,5-3.86,4.64-4.95,5.85-1.25,1.24.34-1.38l3.24-4.24a54.74,54.74,0,0,0-3.94,4.2c-1.27,1.45-2.18,2.52-1.93,1.77,6.23-10,3.41-4.34,8.91-12.3-.64,0-4.1,4.39-6.5,7.63s-3.79,5.28-1.17,0c1.88-2.7,2.32-2.49,4.35-5.06,3.25-6.11,4.23-8.53,4.55-9.64s-.09-1,.07-2.13l-.08.31q.65-3.2,1-6.5-.58,1.8-1.19,3.59c-3.83,6.66-5.92,10.29-7.15,12.22s-1.61,2.15-1.86,2.09-.38-.44-1,.33-1.73,2.7-3.78,7.28c3.92-8.66,5.17-11.13,5.81-13.07s.91-3.27,3.44-9.43c1-3.6,1.66-7.79,3.2-11.21-2.35,4.87-1.92,2.77-1.85,1.21s-.18-2.57-3.21,4.71c1.27-4.09-.76-.69,2.64-10.91-2.16,2.87-1.93,7.22-3.66,12.32-1.5,3.36-2,4-2.26,3.21a31.86,31.86,0,0,1-.1-4.8c0-2-.12-3.75-.63-3.84s-1.46,1.47-3,6.28c-1.71,3.86-3.18,9.38-4.56,14.78s-2.59,10.68-3.56,14.17c.4-3.41,1.06-7.26,1.66-10.25s1.14-5.12,1.14-5.12c.4-6.35-.37-5.27-1.61-.49.63-3.69,1-6.84,1.38-11.64-.71,1-2.35,15.44-2.18,9.09.67-4.75,1.73-12.32,2.62-17-1.21,3.83-2.72,11.73-3.68,15.52a147.23,147.23,0,0,1,2.32-16.08,51.51,51.51,0,0,0-1.94,6,90.63,90.63,0,0,0-1.88,12.37l0,4.25c-.26.54.76-10.14,1.14-12.28.7-4.6.85-3.56.74-.83s-.49,7.13-.69,9.28l-.66,2.7c-1,12.55-.65,11.57.17,7.66s2.13-10.75,2.47-10q-1.37,9-2.63,18.11,1.24-7.49,2.7-15c-.48,4.74-1.9,14.87-2.54,17.54-.44,4.5-.15,2.9.15,1.43s.59-2.81,0,2.2c-.21,1.56-.36,2.42-.5,3.13l1.19-5.32c-.69,3.78-2.09,12.75-1.8,10.12-.66,5.25,0,1.88.73-1.05s1.38-5.47.07,1.34l-.25,1.1c.86-3,1.64-6.24,2.6-10.7s2.09-10.1,4.35-17.67q-3.37,16.23-7.26,32.33l3.3-13c0,.49-.16,1.51-1.54,6.7,1.26-4.42,1.66-5.83,2-7.18s.62-2.66,1.84-6.82c-1.35,6-.75,4.66-.41,4.45s.28.7-3.08,10.85c1.64-4.83,2.22-6.71,2.65-8.23a47.42,47.42,0,0,1,2.11-6c-3.58,10.94-3.25,10-2.28,7.66s2.63-6.13.86-1.14l-3.17,8-.8,2.14-.72,1.95-.24.64-.12.33,0,0,.06-.17,1.13-2.93c.46-1.17.73-1.82.84-2.09.24-.54-.13.46-.72,1.91-1,2.34-.45,1.07-.41,1l.33-.7.77-1.66c.62-1.32.85-1.76.94-1.9s-.25.61,1.11-1.69l-1,1.68-.44.77.06-.12c.09-.17.23-.42.41-.69s.38-.57.57-.83.27-.41.38-.56v0c0-.06.18-.25.37-.47l.29-.34.19-.24-.19.23.23-.28c.06-.06.14-.15.32-.33l-.07.07.29-.26.14-.14.18-.15.16-.12h0l.08-.06.57-.41,2.25-1.63c6-4.33,11.47-8.54,15-9.95-5,3.46-13.72,9.18-15.79,10.57.64-.46,4.25-2.73,2.11-1.25l-2.17,1.37-2.08,1.36h0l.82-.53a9.73,9.73,0,0,1,1.21-.74l-2,1.26h0l0,0,.07,0-.07,0-.17.08-.15.05h0l.5-.19h0l-.24.08-.19.05h0a15.52,15.52,0,0,1-3.6.37h0c-.54,0-1.3,0-1.92,0l-.5,0,1.51.13c1.2.11,2.81.28,5.14.55h-.35l-1-.07-3.28-.32-4.23-.47-.43,0h0l-.88-.11,1.43.2c.73.09.14.11-3.39-.48l-.68-.12-.26,0h.06l.2,0,.2,0h0l1.15.17c-1.15-.16-1.84-.28-2.55-.42l-2.4-.46-1.61-.34-3.1-.7,2.46.55-.14,0h0l.21,0,.27.07c.12,0,.11,0,0,0s-.64-.12-1.1-.23l-3.55-.89-.73-.18.06,0,.12,0,.47.12-3.13-.8q-1.83-.46-3.56-.94l-1.71-.48-.84-.24-1.1-.3,4.37,1.3c5.83,1.74,10.06,3.51-4.19-.83,9.71,3.26,7,1.87,18.35,5.58-1-.14-6.54-1.67-11.81-3.23l-7.14-2.14L568,328l-.65-.18-.24-.05c-3.93-1,1.11.77,6.44,2.7s10.95,4,8.2,3.47c5,1.59,18.21,5.94,22.68,8.08-2-.08-20.92-6.51-24.8-8.12-.38-.24,1.2.23,2.88.81a69,69,0,0,0-9.22-3.32l4.93,1.74c-5.13-1.47-4.77-.79-12.82-3.7A74.4,74.4,0,0,0,576,333c-7.32-2-.49.72-5.42-.59l5.27,1.82,2.27.81a6.37,6.37,0,0,1,.9.36c-6.32-1.54,9.2,3.68,11.15,5-7.54-2.55-17.74-6.82-11.66-4-5.11-1.74-12.93-5-16.88-6.55,4.65,1.94,3.08,1.39.15.27l-4.82-1.9c-2.55-1-.22-.07.25.13l-2.95-1.24,2.47,1,1.75.71-.62-.25,3.81,1.59-2-.84-.51-.22.22.09.17.07,7.82,3.32c4.29,1.82,8.87,3.75,13.13,5.67-2.46-1-1.18-.37-.88-.16s-.38,0-6.69-2.88c2.17.91-1-.53-5-2.27l-5-2.22,3.06,1.37-.41-.18c3.88,1.72,1.79.75,5.75,2.65-.51-.25,1,.49,1.38.67l-.63-.29.43.2,1.38.67-.45-.22.17.08.31.15.53.26.76.39,1,.55,1,.55,2.55,1.29a79.12,79.12,0,0,1,8.08,4.49c-5.34-2.91-3.64-2-6-3.3,6,3.27,2.85,1.68-.74-.34l-1.35-.76-.12-.07.14.08.58.35.58.35.5.29.61.36c1.48.91,1.71,1.11,2.92,1.89-.36-.24-.42-.29.45.32q-.51-.36-1-.69l-.53-.34-.64-.43.8.53.66.43-1.91-1.25,1.49,1,6.23,4c-6.67-4.17-4.71-3-2.31-1.31s5.25,3.83.9.79L586,342.86l.51.38.41.29c.27.2.53.4.8.62.59.51,1,.79,1.53,1.3l-.35-.31.43.39.29.29.21.19.24.23.28.29.3.33.22.24c.42.51.36.44.56.72l-.09-.13.12.17,0,0v0h0l-.18-.27h0l3.05,5.6-2.14-3.89-.9-1.7-.07-.12a2.69,2.69,0,0,1-.11-.25l0-.11-.1-.24c-.07-.16-.12-.31-.15-.42l-.08-.28,0-.14-.07-.23c-.1-.32-.17-.62-.23-.88l0,.1c-.08-.36-.09-.46-.11-.59l.78,3.95c.25,1.33.46,2.49.6,3.33.28,1.67.25,2.05-.21-.16-.62-3.46-1-5.66-1.19-7.09l-.15-.94v-.08h0v0l0,.12c0,.18.07.38,0,.2s-.08-.42-.14-.83l-.07-.64,0-.33-.05-.39,0,.23a23.63,23.63,0,0,1-.2-3h0l0-.82c0,2.56,0,4.66,0,6.43a60.77,60.77,0,0,1-.67,7.76c.58-11.16.34-5.9.75-17.26l-.43,10.12c-.2,4.75-.43,9.7-.75,11.28.16-6.13.32-11.48,1.28-23.56v-.17s0-.18,0,0l0,.69.09-1.25c0-.47.1-.84.13-1.31v.11l.12-1.49,0-.28v-.07l0,.33-.09.81-.39,3.33c-.54,4.41-1.14,8.39-1.26,7.75l-.68,5.16c-1.36,8.44-1.14,6-.75,3.1s.89-6.4-.29-.15l2.79-17.15c-.39,2.06-1.18,6.19-2.12,10.17s-2,7.8-2.56,9.35c2.93-12.55,4.52-18.94,5.83-26.48,0-.06-.05.26-.39,1.62s-.89,3.8-1.8,8c.4-1.63,1.29-5.79.8-3.16-2.77,13.36-4.66,19.84-5.12,19.43,3.84-16.39,4.13-18.51,4.21-19.7a13.92,13.92,0,0,1,.39-2.77c.36-1.81,1.15-5.05,2.86-11.36-1.84,5.94-1.72,4.61-1.21,2s1.55-6.4.91-5.57c-8,24.94-.43.64-9,26.14-.79,1.55-.75,1.1-.2-.56q2.27-7.71,4.64-15.4c2.49-7.43,2.17-5.52,4.16-11.22.33-2.08,3.66-10.8,5.89-17.6-3.22,9.07-4.8,12.92-3.72,9.4l-4,11.76c-5.57,13.22,7.45-21.32,2.32-8.1l3.05-7.9-.44,1.11-.57,1.51-1.36,3.54-1.6,4-.86,2.11-.43,1-.29.74c-.78,2-1.59,3.91-2.33,5.62L585,323.63c-.24.56-.56,1.29,0-.09a135.33,135.33,0,0,1-8.1,16.05l.18-.29-.32.5-.25.41-.58.94,0,0c-.1.15-.36.54-.67,1l-.78,1.13.38-.54c-.42.63-.85,1.18-1.24,1.66s-.6.79-.91,1.14l-.82.93c-.24.27-.6.6-.84.84a14.49,14.49,0,0,1-1.32,1.13h0c-.35.24-.47.33-.66.44l-.36.2-.13.05h0l-.61.18h.1a3.86,3.86,0,0,1,.76-.1,7.47,7.47,0,0,1,1.62.12l.22,0,.66.15-.09,0c.19,0,.71.2,1.06.34l.06,0a9.1,9.1,0,0,1,1.24.59l.27.18-.06,0,0,0h0l2.06,1.8h0l.11.1h0c.2.17.37.33.52.48l.56.54.65.67.91,1-.32-.35c.45.49.71.8,1,1.11s.61.71,1,1.27l.28.35c.53.65,1,1.24,1.5,2l.86,1.18.89,1.27c1.28,1.85,2.68,4,4.48,6.85l-.79-1.23c.44.69,1.11,1.73,1.8,2.88l2.49,4.14,2.28,3.9.71,1.22-3.73-6.49c4.16,7.19,4.32,7.57,3.1,5.29s-3.79-7.24-5.37-10.55l5.79,10.81c-7.27-13.89-9.22-17.71-10.79-21.77.86,1.35,4.63,8.65,3,5.93,3.32,5.52-5.06-10.46-1.59-4.9l3.42,7c.8.66-1.16-3.06-5.08-11.31-2-4.52,2.19,2.36,7.15,12.27-3-6.07-6.75-14.28-5.11-11.53,1.87,3.75,2.93,6.12,3.45,7.28,2.13,3.61.77.31-.36-2.59s-2-5.39.7,0c1.73,3.68,2.61,5.52,3.16,6.6a2.13,2.13,0,0,1-1.55-1.32c4.92,10.17,6,11.84,12.57,26-3.55-7.75-11-24.73-8.42-20l1.66,3.54.5,1.17c.53,1,.14,0-.59-1.74a32.85,32.85,0,0,0,1.6,3c3.84,8.52,2.26,4.52,2.54,4.9-4.92-11.36-3.94-9.61-8.15-18.93a8.26,8.26,0,0,1,.66,1.89c.12.34.17.52.45,1.2l-.42-1a2.14,2.14,0,0,1-.05.93c-2.44-5.8-4.38-10.71-1.46-4.5-3.09-7.33-6.2-14.88-7.64-18.44,7.14,15.71,11.06,24.17,15.11,34-1.19-3.26-1.43-4.39-2.4-7.43s-2.62-8-6.42-19c-.85-2.87,2.43,6.21,3.7,9.63.72,2.23.52,1.91,1.63,5.06-1.81-5.68-.22-2.39-5.26-17.82,2.72,6.83,4.5,14.24,4.17,11.57l1.48,4.74c2.22,6.1,2.51,6.7,2,4.59l-2.85-11.47a87.72,87.72,0,0,1-2.1-10.24c0-1.27.85.63,3.18,8.63-.58-2-.86-2.87-1.55-5.49,1.28,3.48,1.82,4.34,2.12,4.05s.34-1.76.47-3c.24-2.4,1-3.77,3.45,7.64,1,4.59-.48-5.59-1.28-13.31l1.9,13q-.86-7.51-1.58-15c-.33-5.49,1,2.5,2,9.29s1.71,12.34,1.11,2l-.89-8.77c.43,1.66.59-5,1.28,5-.09-1.59-.56-9.07-.12-4.49l.48,6.78q-.08-5.75,0-11.46c.44,2.52.73,9.21,1.05,15.46s.63,12.07.87,12.78c0-1.27,0-6.13,0-11.22s0-10.41-.15-12.67c-.13-.36-.44-4.27-.67-11l.26-3.4-.31-15.35-.35-15.07a234.66,234.66,0,0,0-1.8-26q-.36,6.3-.61,12.57l-.8-10.07.93-.56c-.93-9.5-1-1.16-1,4.54-.35-5.34-.7-9.08-1-11.08q-.07,9.84,0,19.67c-.65-8.07-.47-16-1.55-20.47,0,4.57.46,9.09.8,13.22a81.52,81.52,0,0,1,.44,10.85c-1.12-9.39-1.57-17-1.58-9a88,88,0,0,1-.53-11c-.1,6.33-1.35,2.64-.66,13.58-.78-5.76-1.19-5-1.6-5.24s-.86-1.46-1.85-11.15c.27,4.65.63,15.21.26,16-.89-11.6-1.41-11.92-2.08-12.43s-1.46-1.22-3-13.61c1,10.42.64,12.74.07,14s-1.38,1.3-1,7.09c-.2-1.64-.61-5-.32-3.93-1-1.65-2.26-7.84-3.44-11.66,2.85,17,2.49,21.06,4,31.59-1.93-8.13-2.81-13.11-3.53-18s-1.33-9.79-3-17.62c2.6,13.75,1,14,3.61,25.34-2.66-10-1.52-4.82-4.75-18.77,4.27,21.14.09,3.71,2.32,16.77-3.19-10.21-4.6-19.68-4.26-13.07a64.72,64.72,0,0,1-2.1-9.36C576.23,259.92,576.09,258,576.09,258Zm-12.58,43.28-.1-.22.09-.81A9.91,9.91,0,0,0,563.51,301.28Zm-1.46.89c.39.35.64.32.86.13,1.86,3.84,3.67,7.85,3.43,7.72A88.43,88.43,0,0,0,562.05,302.17Zm37.78,77c.65,1.62-.37-.58-1.41-2.89a12.57,12.57,0,0,0-.46-1.42l-.6-1.39Z" transform="translate(-495.58 -258)"/><path class="cls-1" d="M593.48,364.2c-.1-.26-.29-.74-.32-.85L592,360.83l1.51,3.57C593.49,364.33,593.5,364.29,593.48,364.2Z" transform="translate(-495.58 -258)"/><path class="cls-1" d="M603.37,333.36h0Z" transform="translate(-495.58 -258)"/><polygon class="cls-1" points="20.98 49.68 23.49 51.55 21.61 49.5 20.98 49.68"/><path class="cls-1" d="M626.4,306.4a24.7,24.7,0,0,0,1.85-2.58C627.73,304.45,627.1,305.38,626.4,306.4Z" transform="translate(-495.58 -258)"/><path class="cls-1" d="M621.24,299.5q.6-2.18,1.1-4.4A35.17,35.17,0,0,0,621.24,299.5Z" transform="translate(-495.58 -258)"/><path class="cls-1" d="M618.54,291.46c-.88,2-1.51,3.49-2.08,4.87l0,.08Z" transform="translate(-495.58 -258)"/><path class="cls-1" d="M650.7,375.86c0,.09.15.23.4.44C653,377.84,652.32,377.11,650.7,375.86Z" transform="translate(-495.58 -258)"/><path class="cls-1" d="M630.29,349.64c2.09.83,4.14,1.65,5.42,2.22C636.67,352,637,351.88,630.29,349.64Z" transform="translate(-495.58 -258)"/><path class="cls-1" d="M633.06,416.23,633,416c-.08.1-.19.11-.29.17Z" transform="translate(-495.58 -258)"/><path class="cls-1" d="M635.33,352.32c2.41.59,2,.25.38-.46C634.87,351.77,633.6,351.55,635.33,352.32Z" transform="translate(-495.58 -258)"/><path class="cls-1" d="M599.91,281.48l-.14-.52c-.07.82-.14,1.48-.2,2Z" transform="translate(-495.58 -258)"/><path class="cls-1" d="M599.57,282.94l-.33,1.44C599.34,284.39,599.43,284.3,599.57,282.94Z" transform="translate(-495.58 -258)"/><path class="cls-1" d="M598.58,287.45l.67-3.07C599.11,284.34,599,283.94,598.58,287.45Z" transform="translate(-495.58 -258)"/><path class="cls-1" d="M604.48,287.8l.75-4.43C605,284.28,604.81,285.71,604.48,287.8Z" transform="translate(-495.58 -258)"/><path class="cls-1" d="M606.37,286.8c-.11-.54,0-2.94.05-4.88s-.09-3.41-.59-2.07l-.6,3.52c.65-3.27.55-.58.47,2S605.51,290.49,606.37,286.8Z" transform="translate(-495.58 -258)"/><path class="cls-1" d="M598,341.68q.42-1.73.75-3.5c-.6,2.31-1.34,5-2,7.27l-1.15,4.14a10.7,10.7,0,1,1,.3-1.09v0l.4-1.41.86-3C597.71,342.35,598.08,341.21,598,341.68Z" transform="translate(-495.58 -258)"/><path class="cls-1" d="M598.27,341.71c-.35.86,0,0,0,0C598.48,341.2,598.54,341.07,598.27,341.71Z" transform="translate(-495.58 -258)"/><path class="cls-1" d="M594.27,333.35l.13,0Z" transform="translate(-495.58 -258)"/><path class="cls-1" d="M643,346.62c2.3.41,4.62.76,6.93,1.1L640,345Z" transform="translate(-495.58 -258)"/><polygon class="cls-1" points="69.83 68.47 68.31 67.98 72.17 69.29 69.83 68.47"/><path class="cls-1" d="M591,346.92l0,.06Z" transform="translate(-495.58 -258)"/><path class="cls-1" d="M589.57,333.58c.91-6.87,1.62-11.28.54-4.56C590,330,589.28,335.33,589.57,333.58Z" transform="translate(-495.58 -258)"/><polygon class="cls-1" points="77.31 92.02 77.15 91.95 77.45 92.07 77.31 92.02"/><text class="cls-2" transform="matrix(0.98, 0.21, -0.21, 0.98, 81.38, 72.29)">ab<tspan class="cls-3"><tspan class="cls-4" x="-31.31" y="24">4,99 </tspan><tspan class="cls-5" x="20.73" y="24">€</tspan><tspan class="cls-4" x="31.5" y="24" xml:space="preserve"> / </tspan></tspan><tspan class="cls-6"><tspan x="-24.89" y="48">Monat</tspan></tspan></text></svg>